{
  "accessors": [
    {
      "bufferView": 2,
      "componentType": 5126,
      "count": 6621,
      "max": [
        64.12130737304688,
        80.09941864013672,
        -319.3766784667969
      ],
      "min": [
        60.62632369995117,
        55.91055679321289,
        -404.64788818359375
      ],
      "type": "VEC3"
    },
    {
      "bufferView": 2,
      "byteOffset": 79452,
      "componentType": 5126,
      "count": 6621,
      "max": [
        1.0,
        1.0,
        0.9997794032096863
      ],
      "min": [
        -1.0,
        -1.0,
        -0.9997794032096863
      ],
      "type": "VEC3"
    },
    {
      "bufferView": 3,
      "componentType": 5126,
      "count": 6621,
      "max": [
        1.0,
        1.0,
        1.0,
        1.0
      ],
      "min": [
        -0.9999998211860657,
        -0.9870176315307617,
        -1.0,
        -1.0
      ],
      "type": "VEC4"
    },
    {
      "bufferView": 1,
      "componentType": 5126,
      "count": 6621,
      "max": [
        0.8928102254867554,
        0.9980080127716064
      ],
      "min": [
        0.0017820565262809396,
        0.529823362827301
      ],
      "type": "VEC2"
    },
    {
      "bufferView": 0,
      "componentType": 5125,
      "count": 23856,
      "type": "SCALAR"
    },
    {
      "bufferView": 2,
      "byteOffset": 158904,
      "componentType": 5126,
      "count": 2728,
      "max": [
        63.55522918701172,
        86.84141540527344,
        -307.9171142578125
      ],
      "min": [
        -5.6074676513671875,
        12.389949798583984,
        -415.78955078125
      ],
      "type": "VEC3"
    },
    {
      "bufferView": 2,
      "byteOffset": 191640,
      "componentType": 5126,
      "count": 2728,
      "max": [
        1.0,
        1.0,
        1.0
      ],
      "min": [
        -1.0,
        -1.0,
        -1.0
      ],
      "type": "VEC3"
    },
    {
      "bufferView": 3,
      "byteOffset": 105936,
      "componentType": 5126,
      "count": 2728,
      "max": [
        1.0,
        1.0,
        1.0,
        1.0
      ],
      "min": [
        -0.92500901222229,
        -1.0,
        -1.0,
        1.0
      ],
      "type": "VEC4"
    },
    {
      "bufferView": 1,
      "byteOffset": 52968,
      "componentType": 5126,
      "count": 2728,
      "max": [
        0.8928103446960449,
        0.9758914709091187
      ],
      "min": [
        0.001782060251571238,
        0.00199203216470778
      ],
      "type": "VEC2"
    },
    {
      "bufferView": 0,
      "byteOffset": 95424,
      "componentType": 5125,
      "count": 9444,
      "type": "SCALAR"
    },
    {
      "bufferView": 2,
      "byteOffset": 224376,
      "componentType": 5126,
      "count": 98,
      "max": [
        63.55522918701172,
        89.29150390625,
        -307.9171142578125
      ],
      "min": [
        -5.6074676513671875,
        86.84141540527344,
        -415.78955078125
      ],
      "type": "VEC3"
    },
    {
      "bufferView": 2,
      "byteOffset": 225552,
      "componentType": 5126,
      "count": 98,
      "max": [
        1.0,
        1.0,
        1.0
      ],
      "min": [
        -1.0,
        0.0,
        -1.0
      ],
      "type": "VEC3"
    },
    {
      "bufferView": 3,
      "byteOffset": 149584,
      "componentType": 5126,
      "count": 98,
      "max": [
        1.0,
        1.0,
        2.942912033176981e-05,
        1.0
      ],
      "min": [
        0.0,
        -1.0,
        -3.558465778041864e-06,
        1.0
      ],
      "type": "VEC4"
    },
    {
      "bufferView": 1,
      "byteOffset": 74792,
      "componentType": 5126,
      "count": 98,
      "max": [
        0.44153642654418945,
        0.8270197510719299
      ],
      "min": [
        0.0017820610664784908,
        0.001992033561691642
      ],
      "type": "VEC2"
    },
    {
      "bufferView": 0,
      "byteOffset": 133200,
      "componentType": 5125,
      "count": 264,
      "type": "SCALAR"
    }
  ],
  "asset": {
    "extras": {
      "author": "SmolShadyStudios (https://sketchfab.com/SmolShadyStudios)",
      "license": "CC-BY-4.0 (http://creativecommons.org/licenses/by/4.0/)",
      "source": "https://sketchfab.com/3d-models/horror-night-stand-76a5c12f69324cf9b97fb3fea0c83318",
      "title": "Horror Night Stand"
    },
    "generator": "Sketchfab-12.67.0",
    "version": "2.0"
  },
  "bufferViews": [
    {
      "buffer": 0,
      "byteLength": 134256,
      "name": "floatBufferViews",
      "target": 34963
    },
    {
      "buffer": 0,
      "byteLength": 75576,
      "byteOffset": 134256,
      "byteStride": 8,
      "name": "floatBufferViews",
      "target": 34962
    },
    {
      "buffer": 0,
      "byteLength": 226728,
      "byteOffset": 209832,
      "byteStride": 12,
      "name": "floatBufferViews",
      "target": 34962
    },
    {
      "buffer": 0,
      "byteLength": 151152,
      "byteOffset": 436560,
      "byteStride": 16,
      "name": "floatBufferViews",
      "target": 34962
    }
  ],
  "buffers": [
    {
      "byteLength": 587712,
      "uri": "scene.bin"
    }
  ],
  "images": [
    {
      "uri": "textures/somemetal_baseColor.png"
    },
    {
      "uri": "textures/somemetal_metallicRoughness.png"
    },
    {
      "uri": "textures/somemetal_normal.png"
    },
    {
      "uri": "textures/darkwood_baseColor.png"
    },
    {
      "uri": "textures/darkwood_metallicRoughness.png"
    },
    {
      "uri": "textures/darkwood_normal.png"
    },
    {
      "uri": "textures/lightmarble_baseColor.png"
    },
    {
      "uri": "textures/lightmarble_metallicRoughness.png"
    },
    {
      "uri": "textures/lightmarble_normal.png"
    }
  ],
  "materials": [
    {
      "doubleSided": true,
      "name": "somemetal",
      "normalTexture": {
        "index": 2
      },
      "pbrMetallicRoughness": {
        "baseColorTexture": {
          "index": 0
        },
        "metallicRoughnessTexture": {
          "index": 1
        }
      }
    },
    {
      "doubleSided": true,
      "name": "darkwood",
      "normalTexture": {
        "index": 5
      },
      "pbrMetallicRoughness": {
        "baseColorTexture": {
          "index": 3
        },
        "metallicRoughnessTexture": {
          "index": 4
        }
      }
    },
    {
      "doubleSided": true,
      "name": "lightmarble",
      "normalTexture": {
        "index": 8
      },
      "pbrMetallicRoughness": {
        "baseColorTexture": {
          "index": 6
        },
        "metallicRoughnessTexture": {
          "index": 7
        }
      }
    }
  ],
  "meshes": [
    {
      "name": "knobs_somemetal_0",
      "primitives": [
        {
          "attributes": {
            "NORMAL": 1,
            "POSITION": 0,
            "TANGENT": 2,
            "TEXCOORD_0": 3
          },
          "indices": 4,
          "material": 0,
          "mode": 4
        }
      ]
    },
    {
      "name": "knobs_darkwood_0",
      "primitives": [
        {
          "attributes": {
            "NORMAL": 6,
            "POSITION": 5,
            "TANGENT": 7,
            "TEXCOORD_0": 8
          },
          "indices": 9,
          "material": 1,
          "mode": 4
        }
      ]
    },
    {
      "name": "knobs_lightmarble_0",
      "primitives": [
        {
          "attributes": {
            "NORMAL": 11,
            "POSITION": 10,
            "TANGENT": 12,
            "TEXCOORD_0": 13
          },
          "indices": 14,
          "material": 2,
          "mode": 4
        }
      ]
    }
  ],
  "nodes": [
    {
      "children": [
        1
      ],
      "matrix": [
        1.0,
        0.0,
        0.0,
        0.0,
        0.0,
        2.220446049250313e-16,
        -1.0,
        0.0,
        0.0,
        1.0,
        2.220446049250313e-16,
        0.0,
        0.0,
        0.0,
        0.0,
        1.0
      ],
      "name": "Sketchfab_model"
    },
    {
      "children": [
        2
      ],
      "matrix": [
        1.0,
        0.0,
        0.0,
        0.0,
        0.0,
        0.0,
        1.0,
        0.0,
        0.0,
        -1.0,
        0.0,
        0.0,
        0.0,
        0.0,
        0.0,
        1.0
      ],
      "name": "nightstand.fbx"
    },
    {
      "children": [
        3
      ],
      "name": "RootNode"
    },
    {
      "children": [
        4,
        5,
        6
      ],
      "name": "knobs"
    },
    {
      "mesh": 0,
      "name": "knobs_somemetal_0"
    },
    {
      "mesh": 1,
      "name": "knobs_darkwood_0"
    },
    {
      "mesh": 2,
      "name": "knobs_lightmarble_0"
    }
  ],
  "samplers": [
    {
      "magFilter": 9729,
      "minFilter": 9987,
      "wrapS": 10497,
      "wrapT": 10497
    }
  ],
  "scene": 0,
  "scenes": [
    {
      "name": "Sketchfab_Scene",
      "nodes": [
        0
      ]
    }
  ],
  "textures": [
    {
      "sampler": 0,
      "source": 0
    },
    {
      "sampler": 0,
      "source": 1
    },
    {
      "sampler": 0,
      "source": 2
    },
    {
      "sampler": 0,
      "source": 3
    },
    {
      "sampler": 0,
      "source": 4
    },
    {
      "sampler": 0,
      "source": 5
    },
    {
      "sampler": 0,
      "source": 6
    },
    {
      "sampler": 0,
      "source": 7
    },
    {
      "sampler": 0,
      "source": 8
    }
  ]
}
